<svg xmlns="http://www.w3.org/2000/svg" fill="none" viewBox="0 0 259 258" height="258" width="259">
<g clip-path="url(#clip0_1274_59260)">
<path fill="#FFFFFE" d="M0.324799 56C0.324799 25.0721 25.3969 0 56.3248 0L202.324 0C233.252 0 258.324 25.0721 258.324 56V115.562V201.999C258.324 232.927 233.252 258 202.324 258H56.3248C25.3969 258 0.324799 232.927 0.324799 202V56Z"></path>
<path fill="#EF5A3C" d="M142.768 0H202.324C233.252 0 258.324 25.0721 258.324 56V115.562H166.768C153.513 115.562 142.768 104.817 142.768 91.562V0Z"></path>
<path fill="white" d="M142.762 -0.000366211L258.324 115.562H161.19C151.012 115.562 142.762 107.311 142.762 97.1334V-0.000366211Z"></path>
<path fill="#C24228" d="M148.756 0.00744629L258.324 109.625V115.771L142.735 0.00744629H148.756Z"></path>
<path fill="#CCCCCB" d="M0.474823 184.877V202.375C0.474823 233.303 25.5469 258.375 56.4748 258.375H202.475C233.403 258.375 258.475 233.303 258.475 202.375V184.877C258.475 215.805 233.403 240.877 202.475 240.877H56.4748C25.5469 240.877 0.474823 215.805 0.474823 184.877Z" clip-rule="evenodd" fill-rule="evenodd"></path>
<path fill-opacity="0.3" fill="white" d="M56.4739 0.375244C25.5459 0.375244 0.473877 25.4473 0.473877 56.3752V57.8511C3.49831 29.7767 27.271 7.91797 56.149 7.91797H202.474C233.402 7.91797 258.474 32.99 258.474 63.918V56.3752C258.474 25.4473 233.402 0.375244 202.474 0.375244H56.4739Z" clip-rule="evenodd" fill-rule="evenodd"></path>
<path fill="#CCCCCB" d="M142.351 0.00744629V97.2318C142.351 107.449 150.634 115.732 160.851 115.732H258.7V122.732H160.851C146.768 122.732 135.351 111.315 135.351 97.2318V0.00744629H142.351Z" clip-rule="evenodd" fill-rule="evenodd"></path>
</g>
<defs>
<clipPath id="clip0_1274_59260">
<rect transform="translate(0.324799)" fill="white" height="258" width="258"></rect>
</clipPath>
</defs>
</svg>
